<svg xmlns="http://www.w3.org/2000/svg" xmlns:xlink="http://www.w3.org/1999/xlink" zoomAndPan="magnify" viewBox="0 0 75 74.999997" preserveAspectRatio="xMidYMid meet" version="1.0"><defs><clipPath id="5797cf0446"><path d="M 37 43 L 57 43 L 57 58.640625 L 37 58.640625 Z M 37 43 " clip-rule="nonzero"/></clipPath><clipPath id="de3a5dc86d"><path d="M 0 16.640625 L 72 16.640625 L 72 57 L 0 57 Z M 0 16.640625 " clip-rule="nonzero"/></clipPath></defs><g clip-path="url(#5797cf0446)"><path fill="#000000" d="M 56.527344 52.847656 C 56.125 52.648438 55.773438 52.363281 55.507812 52.011719 L 52.898438 54.554688 C 52.628906 54.417969 52.347656 54.351562 52.027344 54.351562 C 51.929688 54.351562 51.8125 54.371094 51.710938 54.371094 L 49.4375 51.210938 C 49.804688 50.839844 50.023438 50.339844 50.023438 49.789062 C 50.023438 48.683594 49.136719 47.796875 48.03125 47.796875 C 47.53125 47.796875 47.0625 47.984375 46.710938 48.300781 C 44.941406 47.230469 43.453125 45.757812 42.332031 44.019531 C 42.046875 43.570312 41.363281 43.652344 41.195312 44.152344 L 41.195312 44.171875 C 41.128906 44.355469 41.160156 44.570312 41.261719 44.738281 C 42.480469 46.644531 44.136719 48.25 46.078125 49.421875 C 46.078125 49.453125 46.058594 49.488281 46.058594 49.539062 L 42.617188 49.886719 C 42.714844 50.171875 42.765625 50.472656 42.765625 50.792969 C 42.765625 50.925781 42.75 51.074219 42.734375 51.210938 L 46.34375 50.839844 C 46.695312 51.410156 47.332031 51.792969 48.050781 51.792969 C 48.117188 51.792969 48.183594 51.792969 48.234375 51.777344 L 50.558594 55.003906 C 50.457031 55.121094 50.355469 55.238281 50.289062 55.371094 C 47.179688 54.820312 44.253906 53.484375 41.78125 51.460938 C 41.863281 51.242188 41.898438 51.007812 41.898438 50.773438 C 41.898438 49.671875 41.011719 48.785156 39.90625 48.785156 C 38.804688 48.785156 37.917969 49.671875 37.917969 50.773438 C 37.917969 51.878906 38.804688 52.765625 39.90625 52.765625 C 40.292969 52.765625 40.660156 52.648438 40.960938 52.464844 C 43.535156 54.554688 46.644531 56.023438 50.054688 56.644531 C 50.207031 57.597656 51.027344 58.316406 52.027344 58.316406 C 53.132812 58.316406 54.019531 57.429688 54.019531 56.324219 C 54.019531 56.023438 53.949219 55.722656 53.816406 55.472656 Z M 48.03125 50.925781 C 47.414062 50.925781 46.914062 50.421875 46.914062 49.804688 C 46.914062 49.1875 47.414062 48.683594 48.03125 48.683594 C 48.652344 48.683594 49.152344 49.1875 49.152344 49.804688 C 49.152344 50.421875 48.652344 50.925781 48.03125 50.925781 Z M 52.011719 57.460938 C 51.394531 57.460938 50.890625 56.960938 50.890625 56.34375 C 50.890625 55.722656 51.394531 55.222656 52.011719 55.222656 C 52.628906 55.222656 53.132812 55.722656 53.132812 56.34375 C 53.148438 56.960938 52.628906 57.460938 52.011719 57.460938 Z M 52.011719 57.460938 " fill-opacity="1" fill-rule="nonzero"/></g><path fill="#000000" d="M 73.730469 37.765625 C 73.746094 37.5 73.746094 37.214844 73.746094 36.949219 C 73.78125 31.03125 71.222656 25.679688 67.140625 21.96875 C 66.957031 22.371094 66.691406 22.71875 66.355469 22.988281 C 66.375 23.003906 66.390625 23.023438 66.40625 23.039062 C 70.453125 26.800781 72.625 32.015625 72.425781 37.550781 C 72.425781 37.601562 72.425781 37.652344 72.425781 37.699219 C 71.605469 37.953125 71.003906 38.703125 71.003906 39.605469 C 71.003906 39.757812 71.019531 39.90625 71.054688 40.042969 L 67.359375 42.433594 C 66.992188 42.03125 66.472656 41.78125 65.886719 41.78125 C 64.785156 41.78125 63.898438 42.667969 63.898438 43.769531 C 63.898438 44.203125 64.03125 44.605469 64.265625 44.921875 C 62.960938 46.644531 61.242188 48.03125 59.269531 48.953125 C 58.898438 48.535156 58.363281 48.265625 57.761719 48.265625 C 56.742188 48.265625 55.890625 49.035156 55.789062 50.039062 C 55.070312 50.15625 54.320312 50.222656 53.566406 50.207031 C 52.648438 50.207031 51.761719 50.105469 50.910156 49.921875 C 50.890625 50.375 50.757812 50.792969 50.539062 51.175781 C 51.609375 51.410156 52.714844 51.527344 53.851562 51.511719 C 54.601562 51.492188 55.355469 51.425781 56.089844 51.308594 C 56.441406 51.878906 57.0625 52.246094 57.78125 52.246094 C 58.347656 52.246094 58.867188 52.011719 59.21875 51.628906 L 63.128906 52.195312 C 63.128906 52.113281 63.113281 52.027344 63.113281 51.945312 C 63.113281 51.578125 63.179688 51.226562 63.3125 50.890625 L 59.753906 50.375 C 59.753906 50.339844 59.753906 50.289062 59.753906 50.257812 C 59.753906 50.222656 59.753906 50.191406 59.753906 50.171875 C 61.960938 49.152344 63.867188 47.597656 65.320312 45.691406 C 65.371094 45.707031 65.421875 45.726562 65.46875 45.726562 L 65.46875 50.023438 C 64.617188 50.238281 63.980469 51.027344 63.980469 51.945312 C 63.980469 52.144531 64.015625 52.328125 64.066406 52.511719 C 61.324219 54.351562 58.128906 55.421875 54.789062 55.621094 C 54.835938 55.839844 54.871094 56.074219 54.871094 56.324219 C 54.871094 56.527344 54.855469 56.726562 54.804688 56.925781 C 58.449219 56.710938 61.875 55.488281 64.769531 53.535156 C 65.101562 53.785156 65.519531 53.933594 65.972656 53.933594 C 67.074219 53.933594 67.960938 53.046875 67.960938 51.945312 C 67.960938 51.628906 67.894531 51.34375 67.761719 51.074219 C 70.351562 48.5 72.273438 45.222656 73.175781 41.597656 C 74.199219 41.511719 75 40.660156 75 39.605469 C 74.984375 38.789062 74.464844 38.070312 73.730469 37.765625 Z M 65.886719 44.90625 C 65.269531 44.90625 64.769531 44.40625 64.769531 43.785156 C 64.769531 43.167969 65.269531 42.667969 65.886719 42.667969 C 66.507812 42.667969 67.007812 43.167969 67.007812 43.785156 C 67.007812 44.40625 66.507812 44.90625 65.886719 44.90625 Z M 66.90625 50.207031 C 66.859375 50.191406 66.824219 50.15625 66.773438 50.140625 L 66.773438 45.558594 C 67.425781 45.222656 67.878906 44.554688 67.878906 43.785156 C 67.878906 43.753906 67.878906 43.71875 67.878906 43.6875 L 71.757812 41.179688 C 71.808594 41.226562 71.875 41.261719 71.921875 41.296875 C 71.105469 44.65625 69.382812 47.75 66.90625 50.207031 Z M 72.992188 40.761719 C 72.375 40.761719 71.875 40.257812 71.875 39.640625 C 71.875 39.019531 72.375 38.519531 72.992188 38.519531 C 73.613281 38.519531 74.113281 39.019531 74.113281 39.640625 C 74.113281 40.257812 73.628906 40.761719 72.992188 40.761719 Z M 72.992188 40.761719 " fill-opacity="1" fill-rule="nonzero"/><g clip-path="url(#de3a5dc86d)"><path fill="#000000" d="M 68.09375 31.632812 C 68.144531 31.464844 68.160156 31.296875 68.160156 31.113281 C 68.160156 30.175781 67.527344 29.390625 66.65625 29.175781 L 65.789062 22.351562 C 66.257812 21.984375 66.539062 21.417969 66.539062 20.796875 C 66.539062 19.695312 65.652344 18.808594 64.550781 18.808594 C 64.082031 18.808594 63.664062 18.976562 63.332031 19.226562 C 60.453125 17.636719 57.144531 16.734375 53.632812 16.734375 C 51.425781 16.734375 49.304688 17.085938 47.332031 17.738281 C 46.960938 17.355469 46.460938 17.121094 45.894531 17.121094 C 44.789062 17.121094 43.902344 18.007812 43.902344 19.109375 C 43.902344 19.660156 44.121094 20.144531 44.472656 20.515625 L 42.363281 25.8125 C 41.730469 26.0625 41.261719 26.648438 41.144531 27.335938 L 37.097656 29.308594 C 37.382812 29.640625 37.566406 30.042969 37.667969 30.476562 L 41.394531 28.65625 C 41.414062 28.671875 41.414062 28.6875 41.429688 28.707031 C 40.191406 30.5625 39.355469 32.71875 39.070312 35.042969 C 38.9375 36.078125 38.050781 36.847656 37.015625 36.847656 C 35.761719 36.847656 34.808594 35.761719 34.957031 34.523438 C 35.027344 34.039062 35.09375 33.554688 35.191406 33.085938 C 36.164062 32.953125 36.898438 32.117188 36.898438 31.113281 C 36.898438 30.527344 36.648438 30.011719 36.246094 29.640625 C 37.183594 27.386719 38.554688 25.328125 40.324219 23.539062 C 41.34375 22.519531 42.464844 21.632812 43.652344 20.882812 C 43.386719 20.546875 43.183594 20.144531 43.101562 19.710938 C 39.523438 21.917969 36.699219 25.210938 35.058594 29.125 C 35.007812 29.125 34.957031 29.125 34.910156 29.125 C 33.804688 29.125 32.917969 30.011719 32.917969 31.113281 C 32.917969 31.847656 33.320312 32.5 33.921875 32.851562 C 33.671875 34.105469 33.539062 35.394531 33.519531 36.714844 C 33.472656 44.105469 27.601562 50.191406 20.210938 50.222656 C 12.773438 50.257812 6.722656 44.1875 6.789062 36.730469 C 6.855469 29.390625 12.90625 23.441406 20.230469 23.488281 C 23.605469 23.507812 26.683594 24.777344 29.023438 26.867188 C 30.613281 28.289062 33.121094 27.886719 34.15625 26.015625 C 34.171875 25.996094 34.191406 25.964844 34.191406 25.949219 C 34.957031 24.578125 34.65625 22.855469 33.488281 21.800781 C 29.894531 18.609375 25.144531 16.683594 19.945312 16.734375 C 8.859375 16.835938 0 25.8125 0.015625 36.898438 C 0.0351562 48 9.042969 56.976562 20.144531 56.976562 C 31.214844 56.976562 40.191406 48.050781 40.273438 37 C 40.292969 34.257812 41.109375 31.683594 42.515625 29.542969 C 42.699219 29.609375 42.917969 29.640625 43.117188 29.640625 C 44.222656 29.640625 45.105469 28.757812 45.105469 27.652344 C 45.105469 26.785156 44.554688 26.046875 43.785156 25.78125 L 45.640625 21.097656 C 45.726562 21.117188 45.792969 21.117188 45.875 21.117188 C 46.980469 21.117188 47.867188 20.230469 47.867188 19.125 C 47.867188 19.058594 47.867188 18.992188 47.847656 18.941406 C 49.671875 18.355469 51.578125 18.039062 53.515625 18.039062 C 56.59375 18.023438 59.617188 18.757812 62.308594 20.164062 L 57.410156 21.265625 C 57.644531 21.632812 57.796875 22.050781 57.847656 22.503906 L 62.660156 21.417969 C 62.914062 22.203125 63.648438 22.769531 64.515625 22.789062 L 65.167969 27.804688 C 63.144531 25.226562 60.269531 23.355469 56.992188 22.570312 C 56.859375 21.582031 56.023438 20.816406 55.003906 20.816406 C 54.671875 20.816406 54.371094 20.898438 54.101562 21.03125 L 48.734375 19.277344 C 48.703125 19.726562 48.566406 20.164062 48.367188 20.53125 L 53.148438 22.085938 C 53.132812 22.117188 53.132812 22.152344 53.117188 22.1875 C 49.9375 22.300781 47.011719 23.421875 44.671875 25.246094 C 45.058594 25.496094 45.375 25.832031 45.59375 26.214844 C 47.699219 24.59375 50.304688 23.589844 53.148438 23.488281 C 53.433594 24.257812 54.152344 24.792969 55.019531 24.792969 C 55.738281 24.792969 56.375 24.410156 56.726562 23.839844 C 60.136719 24.644531 63.046875 26.75 64.886719 29.609375 C 64.46875 29.976562 64.199219 30.511719 64.199219 31.113281 C 64.199219 32.21875 65.085938 33.101562 66.1875 33.101562 C 66.289062 33.101562 66.375 33.101562 66.472656 33.085938 C 66.839844 34.324219 67.023438 35.628906 67.007812 36.980469 C 66.992188 38.371094 66.773438 39.707031 66.355469 40.976562 C 66.792969 41.042969 67.210938 41.226562 67.558594 41.480469 C 68.027344 40.074219 68.296875 38.554688 68.3125 37 C 68.328125 35.863281 68.195312 34.742188 67.960938 33.671875 L 70.886719 37.71875 C 71.1875 37.382812 71.554688 37.132812 71.957031 36.964844 Z M 44.238281 27.652344 C 44.238281 28.269531 43.734375 28.773438 43.117188 28.773438 C 42.5 28.773438 41.996094 28.269531 41.996094 27.652344 C 41.996094 27.035156 42.5 26.53125 43.117188 26.53125 C 43.734375 26.53125 44.238281 27.035156 44.238281 27.652344 Z M 45.875 20.246094 C 45.257812 20.246094 44.757812 19.746094 44.757812 19.125 C 44.757812 18.507812 45.257812 18.007812 45.875 18.007812 C 46.496094 18.007812 46.996094 18.507812 46.996094 19.125 C 46.996094 19.746094 46.511719 20.246094 45.875 20.246094 Z M 66.171875 32.234375 C 65.554688 32.234375 65.050781 31.730469 65.050781 31.113281 C 65.050781 30.496094 65.554688 29.992188 66.171875 29.992188 C 66.792969 29.992188 67.292969 30.496094 67.292969 31.113281 C 67.308594 31.730469 66.808594 32.234375 66.171875 32.234375 Z M 66.171875 32.234375 " fill-opacity="1" fill-rule="nonzero"/></g></svg>