<svg xmlns="http://www.w3.org/2000/svg" xmlns:xlink="http://www.w3.org/1999/xlink" width="191" zoomAndPan="magnify" viewBox="0 0 143.25 143.249998" height="191" preserveAspectRatio="xMidYMid meet" version="1.0"><defs><clipPath id="80d70a2920"><path d="M 0 0 L 142.503906 0 L 142.503906 142.503906 L 0 142.503906 Z M 0 0 " clip-rule="nonzero"/></clipPath><clipPath id="64fcf75fa5"><path d="M 38 34.210938 L 71 34.210938 L 71 60 L 38 60 Z M 38 34.210938 " clip-rule="nonzero"/></clipPath><clipPath id="01d74033c2"><path d="M 6.6875 36 L 49 36 L 49 97 L 6.6875 97 Z M 6.6875 36 " clip-rule="nonzero"/></clipPath><clipPath id="5520f85bcb"><path d="M 11 36 L 135.042969 36 L 135.042969 105.542969 L 11 105.542969 Z M 11 36 " clip-rule="nonzero"/></clipPath></defs><g clip-path="url(#80d70a2920)"><path fill="#ffffff" d="M 0 0 L 142.503906 0 L 142.503906 142.503906 L 0 142.503906 Z M 0 0 " fill-opacity="1" fill-rule="nonzero"/><path fill="#084c7e" d="M 0 0 L 142.503906 0 L 142.503906 142.503906 L 0 142.503906 Z M 0 0 " fill-opacity="1" fill-rule="nonzero"/></g><g clip-path="url(#64fcf75fa5)"><path fill="#e1d9d9" d="M 38.246094 43.707031 C 38.929688 44.054688 39.535156 44.535156 39.988281 45.140625 L 44.464844 40.789062 C 44.925781 41.019531 45.40625 41.136719 45.957031 41.136719 C 46.128906 41.136719 46.332031 41.109375 46.496094 41.109375 L 50.402344 46.511719 C 49.769531 47.136719 49.390625 48 49.390625 48.941406 C 49.390625 50.832031 50.914062 52.339844 52.808594 52.339844 C 53.664062 52.339844 54.464844 52.03125 55.070312 51.484375 C 58.113281 53.316406 60.664062 55.832031 62.578125 58.808594 C 63.070312 59.574219 64.242188 59.429688 64.53125 58.578125 L 64.53125 58.546875 C 64.648438 58.230469 64.589844 57.855469 64.417969 57.570312 C 62.320312 54.316406 59.488281 51.570312 56.160156 49.574219 C 56.160156 49.515625 56.1875 49.457031 56.1875 49.371094 L 62.097656 48.765625 C 61.925781 48.289062 61.835938 47.769531 61.835938 47.222656 C 61.835938 47 61.867188 46.742188 61.894531 46.511719 L 55.707031 47.136719 C 55.101562 46.167969 54.011719 45.511719 52.78125 45.511719 C 52.664062 45.511719 52.550781 45.511719 52.460938 45.542969 L 48.476562 40.023438 C 48.652344 39.820312 48.824219 39.621094 48.941406 39.390625 C 54.273438 40.339844 59.285156 42.625 63.53125 46.078125 C 63.386719 46.453125 63.328125 46.855469 63.328125 47.25 C 63.328125 49.140625 64.851562 50.660156 66.734375 50.660156 C 68.632812 50.660156 70.152344 49.140625 70.152344 47.25 C 70.152344 45.371094 68.632812 43.851562 66.734375 43.851562 C 66.082031 43.851562 65.445312 44.054688 64.9375 44.363281 C 60.519531 40.789062 55.1875 38.277344 49.335938 37.21875 C 49.085938 35.589844 47.679688 34.359375 45.957031 34.359375 C 44.058594 34.359375 42.539062 35.875 42.539062 37.765625 C 42.539062 38.277344 42.65625 38.792969 42.886719 39.214844 Z M 52.808594 47 C 53.867188 47 54.726562 47.855469 54.726562 48.910156 C 54.726562 49.96875 53.867188 50.832031 52.808594 50.832031 C 51.75 50.832031 50.882812 49.96875 50.882812 48.910156 C 50.882812 47.855469 51.75 47 52.808594 47 Z M 45.984375 35.820312 C 47.042969 35.820312 47.902344 36.671875 47.902344 37.738281 C 47.902344 38.792969 47.042969 39.648438 45.984375 39.648438 C 44.925781 39.648438 44.058594 38.792969 44.058594 37.738281 C 44.03125 36.671875 44.925781 35.820312 45.984375 35.820312 Z M 45.984375 35.820312 " fill-opacity="1" fill-rule="nonzero"/></g><g clip-path="url(#01d74033c2)"><path fill="#e1d9d9" d="M 8.746094 69.492188 C 8.71875 69.953125 8.71875 70.441406 8.71875 70.890625 C 8.660156 81.019531 13.050781 90.167969 20.046875 96.511719 C 20.355469 95.820312 20.816406 95.226562 21.382812 94.765625 C 21.367188 94.734375 21.335938 94.707031 21.308594 94.675781 C 14.367188 88.246094 10.644531 79.328125 10.980469 69.863281 C 10.980469 69.777344 10.980469 69.691406 10.980469 69.605469 C 12.386719 69.183594 13.425781 67.898438 13.425781 66.351562 C 13.425781 66.09375 13.394531 65.832031 13.339844 65.601562 L 19.671875 61.515625 C 20.296875 62.207031 21.191406 62.636719 22.191406 62.636719 C 24.078125 62.636719 25.601562 61.121094 25.601562 59.230469 C 25.601562 58.492188 25.371094 57.800781 24.976562 57.261719 C 27.207031 54.316406 30.164062 51.945312 33.539062 50.371094 C 34.175781 51.082031 35.089844 51.542969 36.121094 51.542969 C 37.871094 51.542969 39.335938 50.226562 39.507812 48.507812 C 40.738281 48.316406 42.03125 48.199219 43.320312 48.230469 C 44.898438 48.230469 46.417969 48.394531 47.871094 48.710938 C 47.902344 47.941406 48.132812 47.222656 48.507812 46.570312 C 46.667969 46.167969 44.78125 45.964844 42.828125 45.992188 C 41.539062 46.023438 40.25 46.136719 38.988281 46.339844 C 38.390625 45.371094 37.324219 44.734375 36.089844 44.734375 C 35.121094 44.734375 34.234375 45.140625 33.628906 45.792969 L 26.917969 44.824219 C 26.917969 44.964844 26.949219 45.109375 26.949219 45.253906 C 26.949219 45.878906 26.832031 46.484375 26.609375 47.050781 L 32.714844 47.941406 C 32.714844 48 32.714844 48.085938 32.714844 48.144531 C 32.714844 48.199219 32.714844 48.257812 32.714844 48.289062 C 28.929688 50.023438 25.65625 52.683594 23.164062 55.945312 C 23.078125 55.917969 22.992188 55.890625 22.90625 55.890625 L 22.90625 48.535156 C 24.367188 48.171875 25.457031 46.828125 25.457031 45.253906 C 25.457031 44.910156 25.398438 44.59375 25.320312 44.285156 C 30.019531 41.136719 35.496094 39.304688 41.222656 38.96875 C 41.144531 38.59375 41.085938 38.191406 41.085938 37.765625 C 41.085938 37.421875 41.117188 37.078125 41.191406 36.730469 C 34.945312 37.105469 29.074219 39.1875 24.109375 42.539062 C 23.539062 42.105469 22.820312 41.847656 22.046875 41.847656 C 20.152344 41.847656 18.640625 43.363281 18.640625 45.253906 C 18.640625 45.792969 18.746094 46.28125 18.980469 46.742188 C 14.542969 51.136719 11.242188 56.742188 9.691406 62.945312 C 7.949219 63.089844 6.574219 64.546875 6.574219 66.351562 C 6.601562 67.753906 7.488281 68.980469 8.746094 69.492188 Z M 22.191406 57.292969 C 23.25 57.292969 24.109375 58.144531 24.109375 59.199219 C 24.109375 60.257812 23.25 61.121094 22.191406 61.121094 C 21.132812 61.121094 20.269531 60.257812 20.269531 59.199219 C 20.269531 58.144531 21.132812 57.292969 22.191406 57.292969 Z M 20.441406 48.230469 C 20.527344 48.257812 20.585938 48.316406 20.671875 48.335938 L 20.671875 56.175781 C 19.554688 56.742188 18.777344 57.886719 18.777344 59.199219 C 18.777344 59.257812 18.777344 59.316406 18.777344 59.375 L 12.125 63.664062 C 12.046875 63.578125 11.933594 63.519531 11.847656 63.464844 C 13.25 57.714844 16.195312 52.425781 20.441406 48.230469 Z M 10.007812 64.375 C 11.066406 64.375 11.933594 65.238281 11.933594 66.292969 C 11.933594 67.351562 11.066406 68.203125 10.007812 68.203125 C 8.949219 68.203125 8.09375 67.351562 8.09375 66.292969 C 8.09375 65.238281 8.921875 64.375 10.007812 64.375 Z M 10.007812 64.375 " fill-opacity="1" fill-rule="nonzero"/></g><g clip-path="url(#5520f85bcb)"><path fill="#efefef" d="M 18.410156 79.980469 C 18.324219 80.269531 18.296875 80.558594 18.296875 80.875 C 18.296875 82.476562 19.382812 83.820312 20.875 84.1875 L 22.367188 95.847656 C 21.558594 96.480469 21.078125 97.453125 21.078125 98.507812 C 21.078125 100.398438 22.597656 101.914062 24.484375 101.914062 C 25.292969 101.914062 26.003906 101.628906 26.582031 101.195312 C 31.511719 103.910156 37.1875 105.457031 43.203125 105.457031 C 46.988281 105.457031 50.625 104.863281 54.011719 103.738281 C 54.636719 104.402344 55.503906 104.804688 56.476562 104.804688 C 58.363281 104.804688 59.882812 103.289062 59.882812 101.398438 C 59.882812 100.457031 59.519531 99.628906 58.910156 98.996094 L 62.519531 89.9375 C 63.617188 89.503906 64.417969 88.503906 64.617188 87.335938 L 71.558594 83.957031 C 71.066406 83.390625 70.75 82.699219 70.578125 81.960938 L 64.1875 85.078125 C 64.15625 85.050781 64.15625 85.019531 64.128906 84.992188 C 66.253906 81.816406 67.679688 78.128906 68.171875 74.15625 C 68.402344 72.378906 69.921875 71.066406 71.691406 71.066406 C 73.847656 71.066406 75.484375 72.925781 75.226562 75.039062 C 75.109375 75.875 74.996094 76.699219 74.820312 77.496094 C 73.15625 77.726562 71.894531 79.15625 71.894531 80.875 C 71.894531 81.875 72.328125 82.757812 73.011719 83.390625 C 71.414062 87.25 69.054688 90.761719 66.023438 93.824219 C 64.273438 95.570312 62.347656 97.078125 60.316406 98.375 C 60.777344 98.941406 61.117188 99.628906 61.261719 100.371094 C 67.398438 96.597656 72.242188 90.964844 75.050781 84.273438 C 75.136719 84.273438 75.226562 84.273438 75.3125 84.273438 C 77.199219 84.273438 78.71875 82.757812 78.71875 80.875 C 78.71875 79.617188 78.035156 78.503906 76.996094 77.898438 C 77.429688 75.757812 77.660156 73.550781 77.6875 71.296875 C 77.777344 58.664062 87.832031 48.257812 100.507812 48.199219 C 113.261719 48.144531 123.636719 58.519531 123.523438 71.265625 C 123.40625 83.820312 113.03125 93.996094 100.480469 93.910156 C 94.6875 93.882812 89.410156 91.710938 85.398438 88.132812 C 82.675781 85.703125 78.371094 86.394531 76.601562 89.589844 C 76.574219 89.621094 76.542969 89.675781 76.542969 89.707031 C 75.226562 92.046875 75.734375 94.996094 77.746094 96.800781 C 83.90625 102.261719 92.050781 105.542969 100.960938 105.457031 C 119.96875 105.285156 135.15625 89.9375 135.128906 70.980469 C 135.101562 52.003906 119.652344 36.644531 100.625 36.644531 C 81.644531 36.644531 66.253906 51.914062 66.109375 70.804688 C 66.082031 75.5 64.675781 79.90625 62.269531 83.5625 C 61.953125 83.449219 61.578125 83.390625 61.230469 83.390625 C 59.34375 83.390625 57.824219 84.90625 57.824219 86.789062 C 57.824219 88.273438 58.765625 89.53125 60.085938 89.992188 L 56.910156 98 C 56.765625 97.96875 56.648438 97.96875 56.503906 97.96875 C 54.609375 97.96875 53.089844 99.488281 53.089844 101.367188 C 53.089844 101.484375 53.089844 101.597656 53.117188 101.683594 C 50 102.683594 46.726562 103.230469 43.40625 103.230469 C 38.132812 103.257812 32.945312 102 28.324219 99.601562 L 36.726562 97.710938 C 36.320312 97.078125 36.0625 96.367188 35.976562 95.597656 L 27.726562 97.453125 C 27.292969 96.109375 26.035156 95.136719 24.542969 95.109375 L 23.425781 86.527344 C 26.890625 90.933594 31.828125 94.140625 37.4375 95.484375 C 37.667969 97.164062 39.105469 98.480469 40.855469 98.480469 C 41.421875 98.480469 41.941406 98.34375 42.40625 98.113281 L 51.605469 101.109375 C 51.664062 100.339844 51.886719 99.601562 52.230469 98.96875 L 44.03125 96.308594 C 44.058594 96.25 44.058594 96.195312 44.089844 96.136719 C 49.535156 95.933594 54.550781 94.023438 58.566406 90.90625 C 57.910156 90.472656 57.363281 89.90625 56.996094 89.246094 C 53.378906 92.019531 48.910156 93.738281 44.03125 93.910156 C 43.550781 92.59375 42.320312 91.683594 40.828125 91.683594 C 39.59375 91.683594 38.507812 92.335938 37.902344 93.304688 C 32.050781 91.933594 27.0625 88.332031 23.914062 83.449219 C 24.628906 82.8125 25.089844 81.902344 25.089844 80.875 C 25.089844 78.984375 23.570312 77.46875 21.671875 77.46875 C 21.5 77.46875 21.367188 77.46875 21.191406 77.496094 C 20.558594 75.382812 20.238281 73.15625 20.269531 70.835938 C 20.296875 68.464844 20.671875 66.179688 21.382812 64.011719 C 20.644531 63.894531 19.929688 63.578125 19.324219 63.144531 C 18.527344 65.546875 18.0625 68.148438 18.035156 70.804688 C 18.007812 72.753906 18.238281 74.664062 18.640625 76.496094 L 13.617188 69.578125 C 13.109375 70.152344 12.472656 70.585938 11.789062 70.863281 Z M 59.316406 86.789062 C 59.316406 85.730469 60.171875 84.878906 61.230469 84.878906 C 62.300781 84.878906 63.15625 85.730469 63.15625 86.789062 C 63.15625 87.84375 62.300781 88.707031 61.230469 88.707031 C 60.171875 88.707031 59.316406 87.84375 59.316406 86.789062 Z M 56.503906 99.457031 C 57.5625 99.457031 58.421875 100.3125 58.421875 101.367188 C 58.421875 102.421875 57.5625 103.289062 56.503906 103.289062 C 55.445312 103.289062 54.582031 102.421875 54.582031 101.367188 C 54.582031 100.3125 55.417969 99.457031 56.503906 99.457031 Z M 21.703125 78.957031 C 22.761719 78.957031 23.628906 79.820312 23.628906 80.875 C 23.628906 81.929688 22.761719 82.785156 21.703125 82.785156 C 20.644531 82.785156 19.785156 81.929688 19.785156 80.875 C 19.757812 79.820312 20.613281 78.957031 21.703125 78.957031 Z M 21.703125 78.957031 " fill-opacity="1" fill-rule="nonzero"/></g></svg>